# xmcd CD database file
#
# Track frame offsets:
#	150
#	23881
#	40541
#	60179
#	80113
#	101945
#	124114
#	145030
#	175410
#	200709
#	235107
#
# Disc length: 3692 seconds
#
# Revision: 0
# Processed by: cddbd v1.5.2PL0 Copyright (c) Steve Scherf et al.
# Submitted via: CDex 1.70beta2
#
DISCID=920e6a0b
DTITLE=Eric Clapton Live 90 - RAH 1993 2
DYEAR=1993
DGENRE=Blues
TTITLE0=Forty Four
TTITLE1=It's My Life
TTITLE2=Love Her With A Feeling
TTITLE3=Tore Down
TTITLE4=Born Under A Bad Sign
TTITLE5=Let Me Love You Baby
TTITLE6=All Your Love
TTITLE7=Groaning The Blues
TTITLE8=Hear Me Calling
TTITLE9=Ain't Nobody's Business If I Do
TTITLE10=Sweet Home Chicago
EXTD=YEAR: 1993
EXTT0=
EXTT1=
EXTT2=
EXTT3=
EXTT4=
EXTT5=
EXTT6=
EXTT7=
EXTT8=
EXTT9=
EXTT10=
PLAYORDER=
